# xmcd
#
# Track frame offsets: 
#        150
#        18269
#        104492
#        122672
#
# Disc length: 1716 seconds
#
# Revision: 1
# Processed by: cddbd v1.5.2PL0 Copyright (c) Steve Scherf et al.
# Submitted via: ExactAudioCopyFreeDBPlugin 1.0
#
DISCID=2a06b204
DTITLE=櫻井桃華（CV：照井春佳） - THE IDOLM@STER CINDERELLA MASTER 040 櫻井桃華
DYEAR=2015
DGENRE=Game
TTITLE0=ラヴィアンローズ
TTITLE1=ドラマ「目指せ！シンデレラNO.1！ -櫻井桃華編-」
TTITLE2=off vocal - ラヴィアンローズ　オリジナル・カラオケ
TTITLE3=ボーナス・トラック
EXTD=
EXTT0=
EXTT1=
EXTT2=
EXTT3=
PLAYORDER=
